{
    "asset" : {
        "generator" : "Khronos glTF Blender I/O v1.7.33",
        "version" : "2.0"
    },
    "scene" : 0,
    "scenes" : [
        {
            "name" : "Scene",
            "nodes" : [
                0,
                1,
                2,
                3
            ]
        }
    ],
    "nodes" : [
        {
            "mesh" : 0,
            "name" : "Cubo.001",
            "scale" : [
                0.9282642602920532,
                0.5816576480865479,
                0.7078377604484558
            ],
            "translation" : [
                0.025834202766418457,
                0.7591872215270996,
                -0.34664082527160645
            ]
        },
        {
            "mesh" : 1,
            "name" : "Cilindro.001",
            "rotation" : [
                0.7071068286895752,
                0,
                0,
                -0.7071068286895752
            ],
            "scale" : [
                0.20203085243701935,
                0.7256539463996887,
                0.20203085243701935
            ],
            "translation" : [
                0.6940457820892334,
                0.6449964642524719,
                0.7981598377227783
            ]
        },
        {
            "mesh" : 2,
            "name" : "Cilindro",
            "rotation" : [
                0,
                0,
                -0.7071067690849304,
                0.7071068286895752
            ],
            "scale" : [
                0.1413043588399887,
                0.7077743411064148,
                0.1413043588399887
            ],
            "translation" : [
                0.03132599592208862,
                0.24103546142578125,
                0.007512092590332031
            ]
        },
        {
            "mesh" : 3,
            "name" : "Cilindro.002",
            "rotation" : [
                0,
                0,
                -0.7071067690849304,
                0.7071068286895752
            ],
            "scale" : [
                0.1413043588399887,
                0.7077743411064148,
                0.1413043588399887
            ],
            "translation" : [
                0.03132599592208862,
                0.24103546142578125,
                -0.6614992022514343
            ]
        }
    ],
    "materials" : [
        {
            "doubleSided" : true,
            "name" : "Material.006",
            "normalTexture" : {
                "index" : 0
            },
            "pbrMetallicRoughness" : {
                "baseColorTexture" : {
                    "index" : 1
                },
                "metallicFactor" : 0,
                "metallicRoughnessTexture" : {
                    "index" : 2
                }
            }
        },
        {
            "doubleSided" : true,
            "name" : "Material.005",
            "pbrMetallicRoughness" : {
                "baseColorFactor" : [
                    0.800000011920929,
                    0.800000011920929,
                    0.800000011920929,
                    1
                ],
                "roughnessFactor" : 0.5
            }
        },
        {
            "doubleSided" : true,
            "name" : "Material.007",
            "pbrMetallicRoughness" : {
                "baseColorFactor" : [
                    0.800000011920929,
                    0.800000011920929,
                    0.800000011920929,
                    1
                ],
                "metallicFactor" : 0,
                "roughnessFactor" : 0.5
            }
        },
        {
            "doubleSided" : true,
            "name" : "Material.008",
            "pbrMetallicRoughness" : {
                "baseColorFactor" : [
                    0.800000011920929,
                    0.800000011920929,
                    0.800000011920929,
                    1
                ],
                "metallicFactor" : 0,
                "roughnessFactor" : 0.5
            }
        }
    ],
    "meshes" : [
        {
            "name" : "Cubo.002",
            "primitives" : [
                {
                    "attributes" : {
                        "POSITION" : 0,
                        "NORMAL" : 1,
                        "TEXCOORD_0" : 2
                    },
                    "indices" : 3,
                    "material" : 0
                }
            ]
        },
        {
            "name" : "Cilindro.001",
            "primitives" : [
                {
                    "attributes" : {
                        "POSITION" : 4,
                        "NORMAL" : 5,
                        "TEXCOORD_0" : 6
                    },
                    "indices" : 7,
                    "material" : 1
                }
            ]
        },
        {
            "name" : "Cilindro.002",
            "primitives" : [
                {
                    "attributes" : {
                        "POSITION" : 8,
                        "NORMAL" : 9,
                        "TEXCOORD_0" : 10
                    },
                    "indices" : 11,
                    "material" : 2
                }
            ]
        },
        {
            "name" : "Cilindro.003",
            "primitives" : [
                {
                    "attributes" : {
                        "POSITION" : 12,
                        "NORMAL" : 13,
                        "TEXCOORD_0" : 14
                    },
                    "indices" : 11,
                    "material" : 3
                }
            ]
        }
    ],
    "textures" : [
        {
            "sampler" : 0,
            "source" : 0
        },
        {
            "sampler" : 0,
            "source" : 1
        },
        {
            "sampler" : 0,
            "source" : 2
        }
    ],
    "images" : [
        {
            "mimeType" : "image/png",
            "name" : "clay_floor_001_nor_gl_2k",
            "uri" : "Texturas/clay_floor_001_nor_gl_2k.png"
        },
        {
            "mimeType" : "image/jpeg",
            "name" : "clay_floor_001_diff_2k",
            "uri" : "Texturas/clay_floor_001_diff_2k.jpg"
        },
        {
            "mimeType" : "image/png",
            "name" : "clay_floor_001_rough_2k",
            "uri" : "Texturas/clay_floor_001_rough_2k.png"
        }
    ],
    "accessors" : [
        {
            "bufferView" : 0,
            "componentType" : 5126,
            "count" : 24,
            "max" : [
                1,
                1,
                1
            ],
            "min" : [
                -1,
                -1,
                -1
            ],
            "type" : "VEC3"
        },
        {
            "bufferView" : 1,
            "componentType" : 5126,
            "count" : 24,
            "type" : "VEC3"
        },
        {
            "bufferView" : 2,
            "componentType" : 5126,
            "count" : 24,
            "type" : "VEC2"
        },
        {
            "bufferView" : 3,
            "componentType" : 5123,
            "count" : 36,
            "type" : "SCALAR"
        },
        {
            "bufferView" : 4,
            "componentType" : 5126,
            "count" : 1001,
            "max" : [
                1.2330025434494019,
                1,
                1.2330023050308228
            ],
            "min" : [
                -1.2330024242401123,
                -1.6614848375320435,
                -1.2330025434494019
            ],
            "type" : "VEC3"
        },
        {
            "bufferView" : 5,
            "componentType" : 5126,
            "count" : 1001,
            "type" : "VEC3"
        },
        {
            "bufferView" : 6,
            "componentType" : 5126,
            "count" : 1001,
            "type" : "VEC2"
        },
        {
            "bufferView" : 7,
            "componentType" : 5123,
            "count" : 2220,
            "type" : "SCALAR"
        },
        {
            "bufferView" : 8,
            "componentType" : 5126,
            "count" : 192,
            "max" : [
                1,
                1,
                1
            ],
            "min" : [
                -1,
                -1,
                -1
            ],
            "type" : "VEC3"
        },
        {
            "bufferView" : 9,
            "componentType" : 5126,
            "count" : 192,
            "type" : "VEC3"
        },
        {
            "bufferView" : 10,
            "componentType" : 5126,
            "count" : 192,
            "type" : "VEC2"
        },
        {
            "bufferView" : 11,
            "componentType" : 5123,
            "count" : 372,
            "type" : "SCALAR"
        },
        {
            "bufferView" : 12,
            "componentType" : 5126,
            "count" : 192,
            "max" : [
                1,
                1,
                1
            ],
            "min" : [
                -1,
                -1,
                -1
            ],
            "type" : "VEC3"
        },
        {
            "bufferView" : 13,
            "componentType" : 5126,
            "count" : 192,
            "type" : "VEC3"
        },
        {
            "bufferView" : 14,
            "componentType" : 5126,
            "count" : 192,
            "type" : "VEC2"
        }
    ],
    "bufferViews" : [
        {
            "buffer" : 0,
            "byteLength" : 288,
            "byteOffset" : 0
        },
        {
            "buffer" : 0,
            "byteLength" : 288,
            "byteOffset" : 288
        },
        {
            "buffer" : 0,
            "byteLength" : 192,
            "byteOffset" : 576
        },
        {
            "buffer" : 0,
            "byteLength" : 72,
            "byteOffset" : 768
        },
        {
            "buffer" : 0,
            "byteLength" : 12012,
            "byteOffset" : 840
        },
        {
            "buffer" : 0,
            "byteLength" : 12012,
            "byteOffset" : 12852
        },
        {
            "buffer" : 0,
            "byteLength" : 8008,
            "byteOffset" : 24864
        },
        {
            "buffer" : 0,
            "byteLength" : 4440,
            "byteOffset" : 32872
        },
        {
            "buffer" : 0,
            "byteLength" : 2304,
            "byteOffset" : 37312
        },
        {
            "buffer" : 0,
            "byteLength" : 2304,
            "byteOffset" : 39616
        },
        {
            "buffer" : 0,
            "byteLength" : 1536,
            "byteOffset" : 41920
        },
        {
            "buffer" : 0,
            "byteLength" : 744,
            "byteOffset" : 43456
        },
        {
            "buffer" : 0,
            "byteLength" : 2304,
            "byteOffset" : 44200
        },
        {
            "buffer" : 0,
            "byteLength" : 2304,
            "byteOffset" : 46504
        },
        {
            "buffer" : 0,
            "byteLength" : 1536,
            "byteOffset" : 48808
        }
    ],
    "samplers" : [
        {
            "magFilter" : 9729,
            "minFilter" : 9987
        }
    ],
    "buffers" : [
        {
            "byteLength" : 50344,
            "uri" : "M.bin"
        }
    ]
}
